<svg xmlns="http://www.w3.org/2000/svg" viewBox="0 0 320 320" role="img" aria-label="University of Galway SMF mark">
  <rect width="320" height="320" fill="#8a0a1f"/>
  <g fill="#ffffff">
    <path d="M160 36 L164 60 L156 60 Z"/>
    <path d="M160 56
             C 138 62 130 84 130 104
             C 130 124 142 136 160 136
             C 178 136 190 124 190 104
             C 190 84 182 62 160 56 Z"/>
    <rect x="140" y="136" width="40" height="6"/>
    <rect x="136" y="144" width="48" height="20"/>
    <rect x="126" y="164" width="68" height="6"/>
    <rect x="132" y="172" width="56" height="100"/>
    <rect x="126" y="272" width="68" height="8"/>
    <path d="M98 122 L106 108 L114 122 Z"/>
    <rect x="96" y="122" width="20" height="6"/>
    <rect x="98" y="130" width="16" height="142"/>
    <rect x="92" y="274" width="28" height="8"/>
    <rect x="206" y="166" width="14" height="106"/>
    <rect x="202" y="274" width="22" height="8"/>
    <rect x="74" y="282" width="172" height="22"/>
  </g>
  <g fill="#8a0a1f">
    <rect x="142" y="194" width="10" height="32"/>
    <rect x="168" y="194" width="10" height="32"/>
    <circle cx="160" cy="244" r="5"/>
    <rect x="104" y="156" width="4" height="12"/>
    <rect x="104" y="180" width="4" height="12"/>
    <rect x="104" y="204" width="4" height="12"/>
    <rect x="104" y="228" width="4" height="12"/>
    <path d="M150 304 L150 286 C150 280 154 276 160 276 C166 276 170 280 170 286 L170 304 Z"/>
  </g>
</svg>
